<svg width="28" height="25" fill="none" xmlns="http://www.w3.org/2000/svg"><path d="M18.402 14.553h-.89l-.316-.276c1.143-1.2 1.772-2.734 1.77-4.32 0-1.312-.43-2.596-1.235-3.688-.806-1.091-1.95-1.942-3.29-2.445a8.045 8.045 0 00-4.237-.377c-1.422.256-2.728.888-3.753 1.816-1.026.929-1.724 2.112-2.007 3.4a6.057 6.057 0 00.417 3.835c.555 1.213 1.495 2.25 2.7 2.979a7.887 7.887 0 004.074 1.119c1.816 0 3.485-.603 4.771-1.604l.305.286v.807l5.64 5.096 1.68-1.521-5.628-5.107zm-6.767 0c-2.809 0-5.076-2.053-5.076-4.596s2.267-4.595 5.076-4.595c2.808 0 5.076 2.052 5.076 4.595 0 2.543-2.268 4.596-5.076 4.596z" fill="#3C3C3C"/></svg>